<svg xmlns="http://www.w3.org/2000/svg" version="1.1" xmlns:xlink="http://www.w3.org/1999/xlink" xmlns:svgjs="http://svgjs.dev/svgjs" viewBox="0 0 800 800" opacity="0.77"><defs><linearGradient x1="50%" y1="0%" x2="50%" y2="100%" id="cccoil-grad"><stop stop-color="hsl(281, 79%, 39%)" stop-opacity="1" offset="0%"></stop><stop stop-color="hsl(231, 89%, 51%)" stop-opacity="1" offset="100%"></stop></linearGradient></defs><g stroke="url(#cccoil-grad)" fill="none" stroke-linecap="square"><circle r="481" cx="400" cy="400" stroke-width="6.5" stroke-dasharray="2811 3022" transform="rotate(360, 400, 400)" opacity="0.05"></circle><circle r="462.5" cx="400" cy="400" stroke-width="6.5" stroke-dasharray="2594 2906" transform="rotate(346, 400, 400)" opacity="0.09"></circle><circle r="444" cx="400" cy="400" stroke-width="6.5" stroke-dasharray="2387 2790" transform="rotate(331, 400, 400)" opacity="0.13"></circle><circle r="425.5" cx="400" cy="400" stroke-width="6.5" stroke-dasharray="2188 2673" transform="rotate(317, 400, 400)" opacity="0.16"></circle><circle r="407" cx="400" cy="400" stroke-width="6.5" stroke-dasharray="1998 2557" transform="rotate(302, 400, 400)" opacity="0.20"></circle><circle r="388.5" cx="400" cy="400" stroke-width="6.5" stroke-dasharray="1816 2441" transform="rotate(288, 400, 400)" opacity="0.24"></circle><circle r="370" cx="400" cy="400" stroke-width="6.5" stroke-dasharray="1643 2325" transform="rotate(274, 400, 400)" opacity="0.28"></circle><circle r="351.5" cx="400" cy="400" stroke-width="6.5" stroke-dasharray="1479 2209" transform="rotate(259, 400, 400)" opacity="0.32"></circle><circle r="333" cx="400" cy="400" stroke-width="6.5" stroke-dasharray="1323 2092" transform="rotate(245, 400, 400)" opacity="0.35"></circle><circle r="314.5" cx="400" cy="400" stroke-width="6.5" stroke-dasharray="1176 1976" transform="rotate(230, 400, 400)" opacity="0.39"></circle><circle r="296" cx="400" cy="400" stroke-width="6.5" stroke-dasharray="1038 1860" transform="rotate(216, 400, 400)" opacity="0.43"></circle><circle r="277.5" cx="400" cy="400" stroke-width="6.5" stroke-dasharray="908 1744" transform="rotate(202, 400, 400)" opacity="0.47"></circle><circle r="259" cx="400" cy="400" stroke-width="6.5" stroke-dasharray="787 1627" transform="rotate(187, 400, 400)" opacity="0.51"></circle><circle r="240.5" cx="400" cy="400" stroke-width="6.5" stroke-dasharray="675 1511" transform="rotate(173, 400, 400)" opacity="0.54"></circle><circle r="222" cx="400" cy="400" stroke-width="6.5" stroke-dasharray="571 1395" transform="rotate(158, 400, 400)" opacity="0.58"></circle><circle r="203.5" cx="400" cy="400" stroke-width="6.5" stroke-dasharray="476 1279" transform="rotate(144, 400, 400)" opacity="0.62"></circle><circle r="185" cx="400" cy="400" stroke-width="6.5" stroke-dasharray="389 1162" transform="rotate(130, 400, 400)" opacity="0.66"></circle><circle r="166.5" cx="400" cy="400" stroke-width="6.5" stroke-dasharray="311 1046" transform="rotate(115, 400, 400)" opacity="0.70"></circle><circle r="148" cx="400" cy="400" stroke-width="6.5" stroke-dasharray="242 930" transform="rotate(101, 400, 400)" opacity="0.73"></circle><circle r="129.5" cx="400" cy="400" stroke-width="6.5" stroke-dasharray="182 814" transform="rotate(86, 400, 400)" opacity="0.77"></circle><circle r="111" cx="400" cy="400" stroke-width="6.5" stroke-dasharray="130 697" transform="rotate(72, 400, 400)" opacity="0.81"></circle><circle r="92.5" cx="400" cy="400" stroke-width="6.5" stroke-dasharray="86 581" transform="rotate(58, 400, 400)" opacity="0.85"></circle><circle r="74" cx="400" cy="400" stroke-width="6.5" stroke-dasharray="52 465" transform="rotate(43, 400, 400)" opacity="0.89"></circle><circle r="55.5" cx="400" cy="400" stroke-width="6.5" stroke-dasharray="26 349" transform="rotate(29, 400, 400)" opacity="0.92"></circle><circle r="37" cx="400" cy="400" stroke-width="6.5" stroke-dasharray="9 232" transform="rotate(14, 400, 400)" opacity="0.96"></circle><circle r="18.5" cx="400" cy="400" stroke-width="6.5" stroke-dasharray="0 116" opacity="1.00"></circle></g></svg>