<svg xmlns="http://www.w3.org/2000/svg" version="1.1" xmlns:xlink="http://www.w3.org/1999/xlink" xmlns:svgjs="http://svgjs.dev/svgjs" viewBox="0 0 800 800"><defs><linearGradient x1="50%" y1="0%" x2="50%" y2="100%" id="ffflurry-grad" gradientTransform="rotate(270)"><stop stop-color="hsl(238, 90%, 9%)" stop-opacity="1" offset="0%"></stop><stop stop-color="hsl(197, 74%, 60%)" stop-opacity="1" offset="45%"></stop><stop stop-color="hsl(265, 59%, 59%)" stop-opacity="1" offset="100%"></stop></linearGradient></defs><rect width="100%" height="100%" fill="hsl(238, 90%, 9%)"></rect><g fill="url(#ffflurry-grad)"><rect width="586" height="3" x="157" y="739.5" rx="1.5" transform="rotate(45, 450, 741)" opacity="0.28"></rect><rect width="61" height="3" x="207.5" y="562.5" rx="1.5" transform="rotate(45, 238, 564)" opacity="0.52"></rect><rect width="468" height="3" x="321" y="291.5" rx="1.5" transform="rotate(45, 555, 293)" opacity="0.98"></rect><rect width="160" height="3" x="-38" y="174.5" rx="1.5" transform="rotate(45, 42, 176)" opacity="0.71"></rect><rect width="321" height="3" x="331.5" y="620.5" rx="1.5" transform="rotate(45, 492, 622)" opacity="0.30"></rect><rect width="237" height="3" x="299.5" y="559.5" rx="1.5" transform="rotate(45, 418, 561)" opacity="0.51"></rect><rect width="163" height="3" x="25.5" y="750.5" rx="1.5" transform="rotate(45, 107, 752)" opacity="0.80"></rect><rect width="63" height="3" x="236.5" y="51.5" rx="1.5" transform="rotate(45, 268, 53)" opacity="0.74"></rect><rect width="119" height="3" x="-1.5" y="51.5" rx="1.5" transform="rotate(45, 58, 53)" opacity="0.34"></rect><rect width="490" height="3" x="465" y="339.5" rx="1.5" transform="rotate(45, 710, 341)" opacity="0.31"></rect><rect width="236" height="3" x="194" y="534.5" rx="1.5" transform="rotate(45, 312, 536)" opacity="0.13"></rect><rect width="82" height="3" x="474" y="50.5" rx="1.5" transform="rotate(45, 515, 52)" opacity="0.93"></rect><rect width="508" height="3" x="105" y="450.5" rx="1.5" transform="rotate(45, 359, 452)" opacity="0.20"></rect><rect width="187" height="3" x="498.5" y="507.5" rx="1.5" transform="rotate(45, 592, 509)" opacity="0.42"></rect><rect width="225" height="3" x="53.5" y="531.5" rx="1.5" transform="rotate(45, 166, 533)" opacity="0.48"></rect><rect width="347" height="3" x="62.5" y="118.5" rx="1.5" transform="rotate(45, 236, 120)" opacity="0.09"></rect><rect width="556" height="3" x="224" y="442.5" rx="1.5" transform="rotate(45, 502, 444)" opacity="0.75"></rect><rect width="271" height="3" x="169.5" y="286.5" rx="1.5" transform="rotate(45, 305, 288)" opacity="0.15"></rect><rect width="197" height="3" x="104.5" y="699.5" rx="1.5" transform="rotate(45, 203, 701)" opacity="0.36"></rect><rect width="157" height="3" x="245.5" y="33.5" rx="1.5" transform="rotate(45, 324, 35)" opacity="0.48"></rect><rect width="234" height="3" x="296" y="217.5" rx="1.5" transform="rotate(45, 413, 219)" opacity="0.27"></rect><rect width="232" height="3" x="214" y="757.5" rx="1.5" transform="rotate(45, 330, 759)" opacity="0.91"></rect><rect width="152" height="3" x="61" y="645.5" rx="1.5" transform="rotate(45, 137, 647)" opacity="0.42"></rect><rect width="210" height="3" x="516" y="52.5" rx="1.5" transform="rotate(45, 621, 54)" opacity="0.11"></rect><rect width="295" height="3" x="111.5" y="695.5" rx="1.5" transform="rotate(45, 259, 697)" opacity="0.57"></rect><rect width="164" height="3" x="-66" y="768.5" rx="1.5" transform="rotate(45, 16, 770)" opacity="0.92"></rect><rect width="195" height="3" x="627.5" y="640.5" rx="1.5" transform="rotate(45, 725, 642)" opacity="0.99"></rect><rect width="630" height="3" x="412" y="89.5" rx="1.5" transform="rotate(45, 727, 91)" opacity="0.99"></rect><rect width="80" height="3" x="20" y="773.5" rx="1.5" transform="rotate(45, 60, 775)" opacity="0.90"></rect><rect width="219" height="3" x="648.5" y="533.5" rx="1.5" transform="rotate(45, 758, 535)" opacity="0.69"></rect><rect width="497" height="3" x="-157.5" y="256.5" rx="1.5" transform="rotate(45, 91, 258)" opacity="0.90"></rect><rect width="224" height="3" x="582" y="432.5" rx="1.5" transform="rotate(45, 694, 434)" opacity="0.48"></rect><rect width="389" height="3" x="170.5" y="98.5" rx="1.5" transform="rotate(45, 365, 100)" opacity="0.16"></rect><rect width="64" height="3" x="383" y="30.5" rx="1.5" transform="rotate(45, 415, 32)" opacity="0.96"></rect><rect width="389" height="3" x="119.5" y="165.5" rx="1.5" transform="rotate(45, 314, 167)" opacity="0.74"></rect><rect width="464" height="3" x="-18" y="222.5" rx="1.5" transform="rotate(45, 214, 224)" opacity="0.91"></rect><rect width="545" height="3" x="-124.5" y="351.5" rx="1.5" transform="rotate(45, 148, 353)" opacity="0.53"></rect><rect width="254" height="3" x="593" y="225.5" rx="1.5" transform="rotate(45, 720, 227)" opacity="0.94"></rect><rect width="323" height="3" x="560.5" y="747.5" rx="1.5" transform="rotate(45, 722, 749)" opacity="0.92"></rect><rect width="68" height="3" x="121" y="732.5" rx="1.5" transform="rotate(45, 155, 734)" opacity="0.55"></rect><rect width="146" height="3" x="111" y="32.5" rx="1.5" transform="rotate(45, 184, 34)" opacity="0.21"></rect><rect width="514" height="3" x="-217" y="385.5" rx="1.5" transform="rotate(45, 40, 387)" opacity="0.53"></rect><rect width="417" height="3" x="-159.5" y="588.5" rx="1.5" transform="rotate(45, 49, 590)" opacity="0.61"></rect><rect width="130" height="3" x="381" y="116.5" rx="1.5" transform="rotate(45, 446, 118)" opacity="0.21"></rect><rect width="175" height="3" x="687.5" y="697.5" rx="1.5" transform="rotate(45, 775, 699)" opacity="0.99"></rect><rect width="118" height="3" x="502" y="685.5" rx="1.5" transform="rotate(45, 561, 687)" opacity="0.25"></rect><rect width="152" height="3" x="541" y="760.5" rx="1.5" transform="rotate(45, 617, 762)" opacity="0.40"></rect><rect width="454" height="3" x="24" y="400.5" rx="1.5" transform="rotate(45, 251, 402)" opacity="0.66"></rect><rect width="274" height="3" x="-50" y="480.5" rx="1.5" transform="rotate(45, 87, 482)" opacity="0.15"></rect><rect width="166" height="3" x="335" y="345.5" rx="1.5" transform="rotate(45, 418, 347)" opacity="0.33"></rect><rect width="269" height="3" x="534.5" y="569.5" rx="1.5" transform="rotate(45, 669, 571)" opacity="0.70"></rect><rect width="95" height="3" x="166.5" y="775.5" rx="1.5" transform="rotate(45, 214, 777)" opacity="0.39"></rect><rect width="306" height="3" x="-114" y="695.5" rx="1.5" transform="rotate(45, 39, 697)" opacity="0.16"></rect><rect width="379" height="3" x="360.5" y="166.5" rx="1.5" transform="rotate(45, 550, 168)" opacity="0.96"></rect><rect width="357" height="3" x="-37.5" y="121.5" rx="1.5" transform="rotate(45, 141, 123)" opacity="0.76"></rect><rect width="529" height="3" x="68.5" y="648.5" rx="1.5" transform="rotate(45, 333, 650)" opacity="0.49"></rect><rect width="362" height="3" x="450" y="644.5" rx="1.5" transform="rotate(45, 631, 646)" opacity="0.99"></rect></g></svg>