<svg xmlns="http://www.w3.org/2000/svg" version="1.1" xmlns:xlink="http://www.w3.org/1999/xlink" xmlns:svgjs="http://svgjs.dev/svgjs" viewBox="0 0 800 800"><circle r="11" cx="361" cy="170" fill="hsl(272, 75%, 70%)" opacity="0.29"></circle><circle r="5.5" cx="778" cy="17" fill="hsl(47, 75%, 70%)" opacity="0.56"></circle><circle r="16" cx="436" cy="241" fill="hsl(252, 75%, 70%)" opacity="0.17"></circle><circle r="6" cx="724" cy="203" fill="hsl(159, 75%, 70%)" opacity="0.62"></circle><circle r="11.5" cx="701" cy="577" fill="hsl(160, 75%, 70%)" opacity="0.35"></circle><circle r="5.5" cx="697" cy="65" fill="hsl(75, 75%, 70%)" opacity="0.26"></circle><circle r="9" cx="20" cy="230" fill="hsl(291, 75%, 70%)" opacity="0.13"></circle><circle r="14.5" cx="230" cy="539" fill="hsl(290, 75%, 70%)" opacity="0.89"></circle><circle r="9" cx="553" cy="28" fill="hsl(85, 75%, 70%)" opacity="0.94"></circle><circle r="14.5" cx="165" cy="343" fill="hsl(296, 75%, 70%)" opacity="0.97"></circle><circle r="7.5" cx="220" cy="485" fill="hsl(291, 75%, 70%)" opacity="0.54"></circle><circle r="16" cx="186" cy="44" fill="hsl(299, 75%, 70%)" opacity="0.10"></circle><circle r="7.5" cx="143" cy="533" fill="hsl(300, 75%, 70%)" opacity="0.19"></circle><circle r="9" cx="513" cy="65" fill="hsl(91, 75%, 70%)" opacity="0.89"></circle><circle r="11.5" cx="188" cy="608" fill="hsl(293, 75%, 70%)" opacity="0.34"></circle><circle r="12" cx="59" cy="218" fill="hsl(302, 75%, 70%)" opacity="0.46"></circle><circle r="16" cx="80" cy="615" fill="hsl(304, 75%, 70%)" opacity="0.66"></circle><circle r="10.5" cx="507" cy="463" fill="hsl(209, 75%, 70%)" opacity="0.22"></circle><circle r="13.5" cx="212" cy="334" fill="hsl(292, 75%, 70%)" opacity="0.18"></circle><circle r="4.5" cx="786" cy="76" fill="hsl(60, 75%, 70%)" opacity="0.17"></circle><circle r="6.5" cx="315" cy="653" fill="hsl(293, 75%, 70%)" opacity="0.33"></circle><circle r="13.5" cx="135" cy="632" fill="hsl(301, 75%, 70%)" opacity="0.56"></circle><circle r="7" cx="328" cy="101" fill="hsl(208, 75%, 70%)" opacity="0.61"></circle><circle r="6.5" cx="469" cy="70" fill="hsl(94, 75%, 70%)" opacity="0.60"></circle><circle r="5.5" cx="768" cy="788" fill="hsl(158, 75%, 70%)" opacity="0.37"></circle><circle r="9.5" cx="636" cy="72" fill="hsl(89, 75%, 70%)" opacity="0.17"></circle><circle r="7.5" cx="567" cy="291" fill="hsl(182, 75%, 70%)" opacity="0.26"></circle><circle r="13" cx="212" cy="746" fill="hsl(292, 75%, 70%)" opacity="0.21"></circle><circle r="7.5" cx="631" cy="732" fill="hsl(167, 75%, 70%)" opacity="0.20"></circle><circle r="12" cx="698" cy="291" fill="hsl(160, 75%, 70%)" opacity="0.34"></circle><circle r="10" cx="542" cy="434" fill="hsl(191, 75%, 70%)" opacity="0.51"></circle><circle r="9.5" cx="454" cy="281" fill="hsl(238, 75%, 70%)" opacity="0.44"></circle><circle r="9.5" cx="768" cy="127" fill="hsl(86, 75%, 70%)" opacity="0.75"></circle><circle r="13" cx="102" cy="775" fill="hsl(304, 75%, 70%)" opacity="0.43"></circle><circle r="8" cx="662" cy="436" fill="hsl(164, 75%, 70%)" opacity="0.33"></circle><circle r="13" cx="558" cy="574" fill="hsl(186, 75%, 70%)" opacity="0.68"></circle><circle r="9" cx="658" cy="400" fill="hsl(164, 75%, 70%)" opacity="0.78"></circle><circle r="10.5" cx="737" cy="541" fill="hsl(158, 75%, 70%)" opacity="0.12"></circle><circle r="10.5" cx="371" cy="651" fill="hsl(283, 75%, 70%)" opacity="0.85"></circle><circle r="8.5" cx="322" cy="510" fill="hsl(293, 75%, 70%)" opacity="0.94"></circle><circle r="6.5" cx="761" cy="366" fill="hsl(158, 75%, 70%)" opacity="0.21"></circle><circle r="11.5" cx="732" cy="259" fill="hsl(158, 75%, 70%)" opacity="0.38"></circle><circle r="8.5" cx="89" cy="163" fill="hsl(324, 75%, 70%)" opacity="0.58"></circle><circle r="12.5" cx="335" cy="32" fill="hsl(123, 75%, 70%)" opacity="0.97"></circle><circle r="7" cx="639" cy="502" fill="hsl(165, 75%, 70%)" opacity="0.85"></circle><circle r="13" cx="482" cy="713" fill="hsl(223, 75%, 70%)" opacity="0.68"></circle><circle r="14.5" cx="400" cy="205" fill="hsl(266, 75%, 70%)" opacity="0.90"></circle><circle r="12" cx="318" cy="206" fill="hsl(293, 75%, 70%)" opacity="0.65"></circle><circle r="18" cx="124" cy="108" fill="hsl(348, 75%, 70%)" opacity="0.68"></circle><circle r="10.5" cx="639" cy="581" fill="hsl(165, 75%, 70%)" opacity="0.47"></circle><circle r="9.5" cx="130" cy="550" fill="hsl(301, 75%, 70%)" opacity="0.94"></circle><circle r="8" cx="687" cy="634" fill="hsl(161, 75%, 70%)" opacity="0.81"></circle><circle r="7" cx="773" cy="682" fill="hsl(158, 75%, 70%)" opacity="0.52"></circle><circle r="8.5" cx="671" cy="603" fill="hsl(163, 75%, 70%)" opacity="0.27"></circle><circle r="12.5" cx="168" cy="410" fill="hsl(296, 75%, 70%)" opacity="0.98"></circle><circle r="12.5" cx="408" cy="779" fill="hsl(266, 75%, 70%)" opacity="0.18"></circle><circle r="11" cx="340" cy="541" fill="hsl(290, 75%, 70%)" opacity="0.42"></circle><circle r="8.5" cx="168" cy="526" fill="hsl(296, 75%, 70%)" opacity="0.21"></circle><circle r="13.5" cx="392" cy="684" fill="hsl(272, 75%, 70%)" opacity="0.54"></circle><circle r="8" cx="583" cy="665" fill="hsl(178, 75%, 70%)" opacity="0.53"></circle><circle r="7.5" cx="683" cy="734" fill="hsl(161, 75%, 70%)" opacity="0.57"></circle><circle r="13" cx="539" cy="493" fill="hsl(191, 75%, 70%)" opacity="0.75"></circle><circle r="8" cx="11" cy="283" fill="hsl(286, 75%, 70%)" opacity="0.45"></circle><circle r="8" cx="624" cy="21" fill="hsl(96, 75%, 70%)" opacity="0.82"></circle><circle r="11.5" cx="451" cy="747" fill="hsl(238, 75%, 70%)" opacity="0.61"></circle><circle r="7.5" cx="598" cy="133" fill="hsl(126, 75%, 70%)" opacity="0.87"></circle><circle r="16.5" cx="27" cy="583" fill="hsl(296, 75%, 70%)" opacity="0.15"></circle><circle r="15.5" cx="19" cy="510" fill="hsl(291, 75%, 70%)" opacity="0.16"></circle><circle r="13" cx="231" cy="598" fill="hsl(290, 75%, 70%)" opacity="0.86"></circle><circle r="12" cx="387" cy="518" fill="hsl(278, 75%, 70%)" opacity="0.86"></circle><circle r="7" cx="649" cy="472" fill="hsl(165, 75%, 70%)" opacity="0.35"></circle><circle r="7" cx="357" cy="227" fill="hsl(287, 75%, 70%)" opacity="0.27"></circle><circle r="11" cx="223" cy="19" fill="hsl(245, 75%, 70%)" opacity="0.51"></circle><circle r="14" cx="519" cy="624" fill="hsl(203, 75%, 70%)" opacity="0.16"></circle><circle r="10.5" cx="205" cy="709" fill="hsl(292, 75%, 70%)" opacity="0.58"></circle><circle r="7.5" cx="343" cy="759" fill="hsl(290, 75%, 70%)" opacity="0.14"></circle><circle r="11" cx="372" cy="557" fill="hsl(283, 75%, 70%)" opacity="0.73"></circle><circle r="11" cx="293" cy="671" fill="hsl(293, 75%, 70%)" opacity="0.36"></circle><circle r="9" cx="752" cy="209" fill="hsl(158, 75%, 70%)" opacity="0.62"></circle><circle r="6" cx="699" cy="196" fill="hsl(160, 75%, 70%)" opacity="0.98"></circle><circle r="9.5" cx="645" cy="539" fill="hsl(165, 75%, 70%)" opacity="0.57"></circle><circle r="14.5" cx="266" cy="637" fill="hsl(291, 75%, 70%)" opacity="0.74"></circle><circle r="17" cx="215" cy="104" fill="hsl(293, 75%, 70%)" opacity="0.31"></circle><circle r="6" cx="448" cy="667" fill="hsl(245, 75%, 70%)" opacity="0.17"></circle><circle r="12" cx="279" cy="263" fill="hsl(292, 75%, 70%)" opacity="0.42"></circle><circle r="17" cx="367" cy="367" fill="hsl(283, 75%, 70%)" opacity="0.64"></circle><circle r="11" cx="372" cy="472" fill="hsl(283, 75%, 70%)" opacity="0.76"></circle><circle r="11.5" cx="294" cy="79" fill="hsl(204, 75%, 70%)" opacity="0.18"></circle><circle r="12.5" cx="293" cy="485" fill="hsl(293, 75%, 70%)" opacity="0.66"></circle><circle r="7.5" cx="626" cy="635" fill="hsl(167, 75%, 70%)" opacity="0.85"></circle><circle r="5" cx="511" cy="14" fill="hsl(74, 75%, 70%)" opacity="0.97"></circle><circle r="7.5" cx="369" cy="775" fill="hsl(283, 75%, 70%)" opacity="0.61"></circle><circle r="7.5" cx="52" cy="188" fill="hsl(302, 75%, 70%)" opacity="0.16"></circle><circle r="11.5" cx="617" cy="179" fill="hsl(159, 75%, 70%)" opacity="0.20"></circle><circle r="14" cx="22" cy="330" fill="hsl(291, 75%, 70%)" opacity="0.30"></circle><circle r="12" cx="293" cy="313" fill="hsl(293, 75%, 70%)" opacity="0.12"></circle><circle r="8" cx="327" cy="146" fill="hsl(256, 75%, 70%)" opacity="0.26"></circle><circle r="6" cx="353" cy="791" fill="hsl(287, 75%, 70%)" opacity="0.59"></circle><circle r="13" cx="391" cy="437" fill="hsl(272, 75%, 70%)" opacity="0.70"></circle><circle r="16.5" cx="141" cy="285" fill="hsl(300, 75%, 70%)" opacity="0.93"></circle><circle r="8" cx="783" cy="556" fill="hsl(158, 75%, 70%)" opacity="0.52"></circle><circle r="15.5" cx="110" cy="325" fill="hsl(304, 75%, 70%)" opacity="0.68"></circle><circle r="11.5" cx="598" cy="553" fill="hsl(175, 75%, 70%)" opacity="0.17"></circle><circle r="6" cx="685" cy="95" fill="hsl(82, 75%, 70%)" opacity="0.68"></circle><circle r="17" cx="96" cy="68" fill="hsl(336, 75%, 70%)" opacity="0.23"></circle><circle r="8.5" cx="585" cy="515" fill="hsl(178, 75%, 70%)" opacity="0.39"></circle><circle r="15.5" cx="342" cy="412" fill="hsl(290, 75%, 70%)" opacity="0.88"></circle><circle r="7" cx="60" cy="169" fill="hsl(318, 75%, 70%)" opacity="0.57"></circle><circle r="8.5" cx="588" cy="63" fill="hsl(93, 75%, 70%)" opacity="0.13"></circle><circle r="10.5" cx="761" cy="455" fill="hsl(158, 75%, 70%)" opacity="0.16"></circle><circle r="9" cx="484" cy="496" fill="hsl(223, 75%, 70%)" opacity="0.12"></circle><circle r="9.5" cx="778" cy="176" fill="hsl(141, 75%, 70%)" opacity="0.90"></circle><circle r="11" cx="585" cy="225" fill="hsl(178, 75%, 70%)" opacity="0.45"></circle><circle r="12" cx="113" cy="670" fill="hsl(303, 75%, 70%)" opacity="0.33"></circle><circle r="9.5" cx="306" cy="532" fill="hsl(293, 75%, 70%)" opacity="0.50"></circle><circle r="11.5" cx="228" cy="651" fill="hsl(290, 75%, 70%)" opacity="0.74"></circle><circle r="14" cx="540" cy="380" fill="hsl(191, 75%, 70%)" opacity="0.94"></circle><circle r="8" cx="153" cy="788" fill="hsl(298, 75%, 70%)" opacity="0.54"></circle><circle r="13.5" cx="422" cy="153" fill="hsl(229, 75%, 70%)" opacity="0.83"></circle><circle r="8.5" cx="378" cy="744" fill="hsl(278, 75%, 70%)" opacity="0.85"></circle><circle r="17" cx="425" cy="407" fill="hsl(259, 75%, 70%)" opacity="0.64"></circle><circle r="6.5" cx="386" cy="35" fill="hsl(91, 75%, 70%)" opacity="0.23"></circle><circle r="8.5" cx="422" cy="75" fill="hsl(108, 75%, 70%)" opacity="0.29"></circle><circle r="8.5" cx="504" cy="783" fill="hsl(209, 75%, 70%)" opacity="0.17"></circle><circle r="8.5" cx="557" cy="684" fill="hsl(186, 75%, 70%)" opacity="0.58"></circle><circle r="11.5" cx="189" cy="491" fill="hsl(293, 75%, 70%)" opacity="0.54"></circle><circle r="20.5" cx="220" cy="175" fill="hsl(299, 75%, 70%)" opacity="0.39"></circle><circle r="15" cx="121" cy="158" fill="hsl(331, 75%, 70%)" opacity="0.90"></circle><circle r="9" cx="615" cy="261" fill="hsl(169, 75%, 70%)" opacity="0.88"></circle><circle r="10.5" cx="724" cy="733" fill="hsl(159, 75%, 70%)" opacity="0.37"></circle><circle r="10.5" cx="581" cy="723" fill="hsl(178, 75%, 70%)" opacity="0.19"></circle><circle r="12" cx="169" cy="707" fill="hsl(296, 75%, 70%)" opacity="0.41"></circle><circle r="11" cx="454" cy="109" fill="hsl(142, 75%, 70%)" opacity="0.79"></circle><circle r="12.5" cx="417" cy="640" fill="hsl(259, 75%, 70%)" opacity="0.48"></circle><circle r="11.5" cx="771" cy="501" fill="hsl(158, 75%, 70%)" opacity="0.50"></circle><circle r="9" cx="16" cy="128" fill="hsl(307, 75%, 70%)" opacity="0.12"></circle><circle r="7" cx="348" cy="134" fill="hsl(236, 75%, 70%)" opacity="0.17"></circle><circle r="7.5" cx="673" cy="130" fill="hsl(105, 75%, 70%)" opacity="0.52"></circle><circle r="6" cx="352" cy="107" fill="hsl(194, 75%, 70%)" opacity="0.68"></circle><circle r="12" cx="402" cy="728" fill="hsl(266, 75%, 70%)" opacity="0.36"></circle><circle r="17.5" cx="169" cy="132" fill="hsl(328, 75%, 70%)" opacity="0.67"></circle><circle r="13" cx="98" cy="197" fill="hsl(305, 75%, 70%)" opacity="0.87"></circle><circle r="9" cx="781" cy="285" fill="hsl(158, 75%, 70%)" opacity="0.29"></circle><circle r="12" cx="259" cy="754" fill="hsl(291, 75%, 70%)" opacity="0.48"></circle><circle r="9" cx="141" cy="715" fill="hsl(300, 75%, 70%)" opacity="0.20"></circle><circle r="11" cx="40" cy="364" fill="hsl(300, 75%, 70%)" opacity="0.82"></circle><circle r="5.5" cx="411" cy="16" fill="hsl(75, 75%, 70%)" opacity="0.69"></circle><circle r="9" cx="413" cy="488" fill="hsl(259, 75%, 70%)" opacity="0.33"></circle><circle r="13.5" cx="102" cy="565" fill="hsl(304, 75%, 70%)" opacity="0.46"></circle><circle r="15.5" cx="413" cy="319" fill="hsl(259, 75%, 70%)" opacity="0.54"></circle><circle r="7.5" cx="784" cy="404" fill="hsl(158, 75%, 70%)" opacity="0.20"></circle><circle r="11" cx="248" cy="715" fill="hsl(290, 75%, 70%)" opacity="0.72"></circle><circle r="13" cx="17" cy="194" fill="hsl(291, 75%, 70%)" opacity="0.58"></circle><circle r="11" cx="563" cy="779" fill="hsl(182, 75%, 70%)" opacity="0.85"></circle><circle r="17.5" cx="109" cy="241" fill="hsl(304, 75%, 70%)" opacity="0.12"></circle><circle r="8" cx="739" cy="86" fill="hsl(63, 75%, 70%)" opacity="0.23"></circle><circle r="7.5" cx="353" cy="78" fill="hsl(157, 75%, 70%)" opacity="0.55"></circle><circle r="12.5" cx="485" cy="401" fill="hsl(223, 75%, 70%)" opacity="0.20"></circle><circle r="11.5" cx="207" cy="450" fill="hsl(292, 75%, 70%)" opacity="0.29"></circle><circle r="11.5" cx="116" cy="17" fill="hsl(305, 75%, 70%)" opacity="0.22"></circle><circle r="7.5" cx="753" cy="703" fill="hsl(158, 75%, 70%)" opacity="0.48"></circle><circle r="16" cx="52" cy="479" fill="hsl(302, 75%, 70%)" opacity="0.37"></circle><circle r="9" cx="432" cy="707" fill="hsl(252, 75%, 70%)" opacity="0.37"></circle><circle r="13" cx="61" cy="255" fill="hsl(302, 75%, 70%)" opacity="0.21"></circle><circle r="7.5" cx="385" cy="78" fill="hsl(143, 75%, 70%)" opacity="0.25"></circle><circle r="12.5" cx="432" cy="598" fill="hsl(252, 75%, 70%)" opacity="0.97"></circle><circle r="7.5" cx="736" cy="380" fill="hsl(158, 75%, 70%)" opacity="0.16"></circle><circle r="16.5" cx="19" cy="750" fill="hsl(291, 75%, 70%)" opacity="1.00"></circle><circle r="10.5" cx="342" cy="580" fill="hsl(290, 75%, 70%)" opacity="0.24"></circle><circle r="12" cx="212" cy="375" fill="hsl(292, 75%, 70%)" opacity="0.65"></circle><circle r="6" cx="751" cy="39" fill="hsl(56, 75%, 70%)" opacity="0.49"></circle><circle r="14" cx="60" cy="731" fill="hsl(302, 75%, 70%)" opacity="0.17"></circle><circle r="7" cx="392" cy="110" fill="hsl(173, 75%, 70%)" opacity="0.10"></circle><circle r="14" cx="269" cy="37" fill="hsl(189, 75%, 70%)" opacity="0.50"></circle><circle r="4.5" cx="469" cy="39" fill="hsl(75, 75%, 70%)" opacity="0.71"></circle><circle r="7" cx="785" cy="343" fill="hsl(158, 75%, 70%)" opacity="0.84"></circle><circle r="8" cx="582" cy="266" fill="hsl(178, 75%, 70%)" opacity="0.55"></circle><circle r="9.5" cx="320" cy="690" fill="hsl(293, 75%, 70%)" opacity="0.91"></circle><circle r="11" cx="408" cy="567" fill="hsl(266, 75%, 70%)" opacity="0.46"></circle><circle r="7" cx="334" cy="487" fill="hsl(292, 75%, 70%)" opacity="0.52"></circle><circle r="10" cx="511" cy="669" fill="hsl(209, 75%, 70%)" opacity="0.85"></circle><circle r="11.5" cx="301" cy="565" fill="hsl(293, 75%, 70%)" opacity="0.55"></circle><circle r="13.5" cx="261" cy="573" fill="hsl(291, 75%, 70%)" opacity="0.68"></circle><circle r="15" cx="330" cy="328" fill="hsl(292, 75%, 70%)" opacity="0.66"></circle><circle r="11.5" cx="586" cy="625" fill="hsl(178, 75%, 70%)" opacity="0.16"></circle><circle r="8.5" cx="82" cy="372" fill="hsl(304, 75%, 70%)" opacity="0.23"></circle><circle r="9.5" cx="262" cy="491" fill="hsl(291, 75%, 70%)" opacity="0.51"></circle><circle r="13" cx="307" cy="780" fill="hsl(293, 75%, 70%)" opacity="0.83"></circle><circle r="10" cx="621" cy="691" fill="hsl(169, 75%, 70%)" opacity="0.30"></circle><circle r="13" cx="478" cy="305" fill="hsl(223, 75%, 70%)" opacity="0.17"></circle><circle r="12.5" cx="55" cy="59" fill="hsl(304, 75%, 70%)" opacity="0.50"></circle><circle r="11" cx="31" cy="85" fill="hsl(300, 75%, 70%)" opacity="0.24"></circle><circle r="11.5" cx="351" cy="687" fill="hsl(287, 75%, 70%)" opacity="0.64"></circle><circle r="10.5" cx="96" cy="710" fill="hsl(305, 75%, 70%)" opacity="0.67"></circle><circle r="3.5" cx="467" cy="794" fill="hsl(230, 75%, 70%)" opacity="0.90"></circle><circle r="10" cx="559" cy="195" fill="hsl(186, 75%, 70%)" opacity="0.50"></circle><circle r="8" cx="556" cy="94" fill="hsl(106, 75%, 70%)" opacity="0.62"></circle><circle r="7" cx="244" cy="476" fill="hsl(290, 75%, 70%)" opacity="0.67"></circle><circle r="8.5" cx="634" cy="338" fill="hsl(167, 75%, 70%)" opacity="0.95"></circle><circle r="12" cx="258" cy="320" fill="hsl(291, 75%, 70%)" opacity="0.63"></circle><circle r="15" cx="188" cy="282" fill="hsl(293, 75%, 70%)" opacity="0.84"></circle><circle r="10.5" cx="752" cy="315" fill="hsl(158, 75%, 70%)" opacity="0.55"></circle><circle r="7" cx="552" cy="161" fill="hsl(158, 75%, 70%)" opacity="0.66"></circle><circle r="11" cx="468" cy="544" fill="hsl(230, 75%, 70%)" opacity="0.39"></circle><circle r="9" cx="673" cy="170" fill="hsl(137, 75%, 70%)" opacity="0.24"></circle><circle r="8" cx="143" cy="509" fill="hsl(300, 75%, 70%)" opacity="0.48"></circle><circle r="9.5" cx="211" cy="679" fill="hsl(292, 75%, 70%)" opacity="0.36"></circle><circle r="14.5" cx="65" cy="111" fill="hsl(339, 75%, 70%)" opacity="0.76"></circle><circle r="8.5" cx="440" cy="785" fill="hsl(245, 75%, 70%)" opacity="0.40"></circle><circle r="11" cx="672" cy="341" fill="hsl(163, 75%, 70%)" opacity="0.68"></circle><circle r="12.5" cx="523" cy="748" fill="hsl(203, 75%, 70%)" opacity="0.43"></circle><circle r="12.5" cx="66" cy="20" fill="hsl(276, 75%, 70%)" opacity="0.50"></circle><circle r="14" cx="154" cy="188" fill="hsl(298, 75%, 70%)" opacity="0.78"></circle><circle r="10.5" cx="155" cy="443" fill="hsl(298, 75%, 70%)" opacity="0.30"></circle><circle r="8" cx="739" cy="418" fill="hsl(158, 75%, 70%)" opacity="0.50"></circle><circle r="12.5" cx="428" cy="525" fill="hsl(252, 75%, 70%)" opacity="0.50"></circle><circle r="12" cx="774" cy="750" fill="hsl(158, 75%, 70%)" opacity="0.50"></circle><circle r="8.5" cx="75" cy="142" fill="hsl(337, 75%, 70%)" opacity="0.97"></circle><circle r="10.5" cx="584" cy="475" fill="hsl(178, 75%, 70%)" opacity="0.72"></circle><circle r="14" cx="113" cy="416" fill="hsl(303, 75%, 70%)" opacity="0.35"></circle><circle r="11.5" cx="317" cy="271" fill="hsl(293, 75%, 70%)" opacity="0.97"></circle><circle r="13" cx="91" cy="463" fill="hsl(305, 75%, 70%)" opacity="0.91"></circle><circle r="13" cx="28" cy="155" fill="hsl(313, 75%, 70%)" opacity="1.00"></circle><circle r="7.5" cx="748" cy="580" fill="hsl(158, 75%, 70%)" opacity="0.42"></circle><circle r="9" cx="683" cy="227" fill="hsl(161, 75%, 70%)" opacity="0.52"></circle><circle r="7.5" cx="624" cy="443" fill="hsl(169, 75%, 70%)" opacity="0.78"></circle><circle r="11" cx="339" cy="730" fill="hsl(290, 75%, 70%)" opacity="0.64"></circle><circle r="11" cx="578" cy="342" fill="hsl(178, 75%, 70%)" opacity="0.85"></circle><circle r="15" cx="259" cy="122" fill="hsl(270, 75%, 70%)" opacity="0.34"></circle><circle r="10.5" cx="716" cy="778" fill="hsl(159, 75%, 70%)" opacity="0.27"></circle><circle r="8.5" cx="583" cy="393" fill="hsl(178, 75%, 70%)" opacity="0.59"></circle><circle r="6.5" cx="470" cy="772" fill="hsl(230, 75%, 70%)" opacity="0.46"></circle><circle r="12" cx="273" cy="526" fill="hsl(291, 75%, 70%)" opacity="0.49"></circle><circle r="13.5" cx="260" cy="416" fill="hsl(291, 75%, 70%)" opacity="0.14"></circle><circle r="6.5" cx="556" cy="129" fill="hsl(136, 75%, 70%)" opacity="0.43"></circle><circle r="5" cx="447" cy="687" fill="hsl(245, 75%, 70%)" opacity="1.00"></circle><circle r="10.5" cx="242" cy="262" fill="hsl(290, 75%, 70%)" opacity="0.46"></circle><circle r="12" cx="329" cy="458" fill="hsl(292, 75%, 70%)" opacity="0.53"></circle><circle r="15.5" cx="503" cy="211" fill="hsl(209, 75%, 70%)" opacity="0.46"></circle><circle r="8" cx="700" cy="702" fill="hsl(160, 75%, 70%)" opacity="0.44"></circle><circle r="11.5" cx="608" cy="768" fill="hsl(172, 75%, 70%)" opacity="0.80"></circle><circle r="12" cx="193" cy="778" fill="hsl(293, 75%, 70%)" opacity="0.30"></circle><circle r="7" cx="654" cy="744" fill="hsl(164, 75%, 70%)" opacity="0.96"></circle><circle r="16.5" cx="277" cy="370" fill="hsl(292, 75%, 70%)" opacity="0.68"></circle><circle r="3.5" cx="483" cy="17" fill="hsl(69, 75%, 70%)" opacity="0.64"></circle><circle r="8.5" cx="354" cy="627" fill="hsl(287, 75%, 70%)" opacity="0.80"></circle><circle r="5" cx="445" cy="20" fill="hsl(67, 75%, 70%)" opacity="0.92"></circle><circle r="5" cx="656" cy="790" fill="hsl(164, 75%, 70%)" opacity="0.24"></circle><circle r="12.5" cx="228" cy="295" fill="hsl(290, 75%, 70%)" opacity="0.73"></circle><circle r="9.5" cx="779" cy="238" fill="hsl(158, 75%, 70%)" opacity="0.78"></circle><circle r="17.5" cx="23" cy="649" fill="hsl(291, 75%, 70%)" opacity="0.12"></circle><circle r="12" cx="174" cy="573" fill="hsl(296, 75%, 70%)" opacity="0.68"></circle><circle r="14" cx="469" cy="168" fill="hsl(212, 75%, 70%)" opacity="0.51"></circle><circle r="15" cx="503" cy="567" fill="hsl(209, 75%, 70%)" opacity="0.34"></circle><circle r="13.5" cx="280" cy="206" fill="hsl(292, 75%, 70%)" opacity="0.54"></circle><circle r="12.5" cx="144" cy="378" fill="hsl(300, 75%, 70%)" opacity="0.84"></circle><circle r="6.5" cx="675" cy="769" fill="hsl(163, 75%, 70%)" opacity="0.37"></circle><circle r="7" cx="688" cy="455" fill="hsl(160, 75%, 70%)" opacity="0.33"></circle><circle r="12" cx="508" cy="125" fill="hsl(153, 75%, 70%)" opacity="0.91"></circle><circle r="7" cx="670" cy="503" fill="hsl(163, 75%, 70%)" opacity="0.95"></circle><circle r="9" cx="618" cy="304" fill="hsl(169, 75%, 70%)" opacity="0.19"></circle><circle r="14.5" cx="376" cy="293" fill="hsl(278, 75%, 70%)" opacity="0.89"></circle><circle r="12.5" cx="59" cy="781" fill="hsl(302, 75%, 70%)" opacity="1.00"></circle><circle r="11.5" cx="468" cy="636" fill="hsl(230, 75%, 70%)" opacity="0.57"></circle><circle r="11" cx="116" cy="735" fill="hsl(303, 75%, 70%)" opacity="0.77"></circle><circle r="12" cx="19" cy="391" fill="hsl(291, 75%, 70%)" opacity="0.59"></circle><circle r="15" cx="175" cy="647" fill="hsl(296, 75%, 70%)" opacity="0.16"></circle><circle r="8" cx="632" cy="120" fill="hsl(108, 75%, 70%)" opacity="0.94"></circle><circle r="8.5" cx="780" cy="649" fill="hsl(158, 75%, 70%)" opacity="0.21"></circle><circle r="7" cx="655" cy="640" fill="hsl(164, 75%, 70%)" opacity="0.58"></circle><circle r="11" cx="698" cy="396" fill="hsl(160, 75%, 70%)" opacity="0.18"></circle><circle r="10" cx="661" cy="689" fill="hsl(164, 75%, 70%)" opacity="0.10"></circle><circle r="16" cx="448" cy="355" fill="hsl(245, 75%, 70%)" opacity="0.59"></circle><circle r="10" cx="125" cy="457" fill="hsl(303, 75%, 70%)" opacity="0.41"></circle><circle r="13" cx="215" cy="232" fill="hsl(291, 75%, 70%)" opacity="0.21"></circle><circle r="13.5" cx="20" cy="29" fill="hsl(232, 75%, 70%)" opacity="0.50"></circle><circle r="9" cx="356" cy="506" fill="hsl(287, 75%, 70%)" opacity="0.19"></circle><circle r="15" cx="172" cy="228" fill="hsl(296, 75%, 70%)" opacity="0.30"></circle><circle r="12.5" cx="108" cy="499" fill="hsl(304, 75%, 70%)" opacity="0.41"></circle><circle r="10.5" cx="717" cy="342" fill="hsl(159, 75%, 70%)" opacity="0.88"></circle><circle r="12" cx="533" cy="315" fill="hsl(197, 75%, 70%)" opacity="0.12"></circle><circle r="10.5" cx="270" cy="691" fill="hsl(291, 75%, 70%)" opacity="0.48"></circle><circle r="9.5" cx="727" cy="633" fill="hsl(158, 75%, 70%)" opacity="0.98"></circle><circle r="8" cx="573" cy="425" fill="hsl(182, 75%, 70%)" opacity="0.41"></circle><circle r="10" cx="253" cy="223" fill="hsl(291, 75%, 70%)" opacity="0.35"></circle><circle r="9.5" cx="527" cy="706" fill="hsl(197, 75%, 70%)" opacity="0.64"></circle><circle r="10.5" cx="300" cy="123" fill="hsl(239, 75%, 70%)" opacity="0.73"></circle><circle r="10.5" cx="641" cy="221" fill="hsl(165, 75%, 70%)" opacity="0.78"></circle><circle r="14" cx="72" cy="426" fill="hsl(304, 75%, 70%)" opacity="0.49"></circle><circle r="9" cx="378" cy="137" fill="hsl(217, 75%, 70%)" opacity="0.81"></circle><circle r="13" cx="501" cy="351" fill="hsl(209, 75%, 70%)" opacity="0.13"></circle><circle r="9" cx="328" cy="636" fill="hsl(292, 75%, 70%)" opacity="0.32"></circle><circle r="14" cx="144" cy="56" fill="hsl(329, 75%, 70%)" opacity="0.93"></circle><circle r="8" cx="721" cy="148" fill="hsl(101, 75%, 70%)" opacity="0.47"></circle><circle r="7.5" cx="619" cy="477" fill="hsl(169, 75%, 70%)" opacity="0.80"></circle><circle r="9.5" cx="63" cy="392" fill="hsl(304, 75%, 70%)" opacity="0.63"></circle><circle r="9.5" cx="770" cy="610" fill="hsl(158, 75%, 70%)" opacity="0.51"></circle><circle r="13" cx="293" cy="165" fill="hsl(286, 75%, 70%)" opacity="0.99"></circle><circle r="5.5" cx="8" cy="90" fill="hsl(281, 75%, 70%)" opacity="0.16"></circle><circle r="8" cx="704" cy="668" fill="hsl(160, 75%, 70%)" opacity="0.58"></circle><circle r="11.5" cx="39" cy="289" fill="hsl(300, 75%, 70%)" opacity="0.13"></circle><circle r="9" cx="251" cy="786" fill="hsl(291, 75%, 70%)" opacity="0.80"></circle><circle r="10" cx="714" cy="480" fill="hsl(159, 75%, 70%)" opacity="0.18"></circle><circle r="12.5" cx="525" cy="260" fill="hsl(203, 75%, 70%)" opacity="0.77"></circle><circle r="13.5" cx="300" cy="732" fill="hsl(293, 75%, 70%)" opacity="0.99"></circle><circle r="8" cx="336" cy="608" fill="hsl(292, 75%, 70%)" opacity="0.14"></circle><circle r="10" cx="656" cy="272" fill="hsl(164, 75%, 70%)" opacity="0.14"></circle><circle r="12.5" cx="69" cy="339" fill="hsl(304, 75%, 70%)" opacity="0.36"></circle><circle r="9" cx="694" cy="24" fill="hsl(80, 75%, 70%)" opacity="0.85"></circle><circle r="14.5" cx="25" cy="436" fill="hsl(291, 75%, 70%)" opacity="0.16"></circle><circle r="7.5" cx="451" cy="488" fill="hsl(238, 75%, 70%)" opacity="0.93"></circle><circle r="8" cx="610" cy="362" fill="hsl(172, 75%, 70%)" opacity="0.79"></circle><circle r="13.5" cx="54" cy="688" fill="hsl(302, 75%, 70%)" opacity="0.95"></circle><circle r="10" cx="427" cy="460" fill="hsl(252, 75%, 70%)" opacity="0.59"></circle><circle r="12" cx="379" cy="608" fill="hsl(278, 75%, 70%)" opacity="0.52"></circle><circle r="10.5" cx="111" cy="371" fill="hsl(304, 75%, 70%)" opacity="0.39"></circle><circle r="15" cx="60" cy="544" fill="hsl(302, 75%, 70%)" opacity="0.73"></circle><circle r="14.5" cx="297" cy="607" fill="hsl(293, 75%, 70%)" opacity="0.56"></circle><circle r="10" cx="197" cy="534" fill="hsl(293, 75%, 70%)" opacity="0.95"></circle><circle r="11" cx="155" cy="480" fill="hsl(298, 75%, 70%)" opacity="0.16"></circle><circle r="6" cx="635" cy="383" fill="hsl(167, 75%, 70%)" opacity="0.26"></circle><circle r="8.5" cx="354" cy="200" fill="hsl(287, 75%, 70%)" opacity="0.84"></circle><circle r="5.5" cx="613" cy="403" fill="hsl(169, 75%, 70%)" opacity="0.88"></circle><circle r="12.5" cx="210" cy="412" fill="hsl(292, 75%, 70%)" opacity="0.18"></circle><circle r="12" cx="468" cy="441" fill="hsl(230, 75%, 70%)" opacity="0.17"></circle><circle r="5.5" cx="603" cy="432" fill="hsl(172, 75%, 70%)" opacity="0.41"></circle><circle r="9" cx="78" cy="653" fill="hsl(304, 75%, 70%)" opacity="0.91"></circle><circle r="13" cx="80" cy="292" fill="hsl(304, 75%, 70%)" opacity="0.23"></circle><circle r="15" cx="291" cy="440" fill="hsl(293, 75%, 70%)" opacity="0.44"></circle><circle r="7" cx="25" cy="254" fill="hsl(291, 75%, 70%)" opacity="0.13"></circle><circle r="9.5" cx="699" cy="525" fill="hsl(160, 75%, 70%)" opacity="0.65"></circle><circle r="10.5" cx="144" cy="762" fill="hsl(300, 75%, 70%)" opacity="0.67"></circle><circle r="10" cx="351" cy="252" fill="hsl(287, 75%, 70%)" opacity="0.11"></circle></svg>