<svg xmlns="http://www.w3.org/2000/svg" version="1.1" xmlns:xlink="http://www.w3.org/1999/xlink" xmlns:svgjs="http://svgjs.dev/svgjs" viewBox="0 0 800 800"><defs><linearGradient x1="50%" y1="0%" x2="50%" y2="100%" id="ssspill-grad"><stop stop-color="hsl(212, 72%, 59%)" stop-opacity="1" offset="45%"></stop><stop stop-color="hsl(272, 87%, 50%)" stop-opacity="1" offset="100%"></stop></linearGradient><filter id="ssspot-filter" x="-20%" y="-20%" width="140%" height="140%" filterUnits="objectBoundingBox" primitiveUnits="userSpaceOnUse" color-interpolation-filters="sRGB">
	<feTurbulence type="turbulence" baseFrequency="0.022 0.218" numOctaves="2" seed="223" stitchTiles="stitch" x="0%" y="0%" width="100%" height="100%" result="turbulence"></feTurbulence>
	<feGaussianBlur stdDeviation="0 3" x="0%" y="0%" width="100%" height="100%" in="turbulence" edgeMode="duplicate" result="blur"></feGaussianBlur>
	<feDisplacementMap in="SourceGraphic" in2="blur" scale="32" xChannelSelector="R" yChannelSelector="B" x="0%" y="0%" width="100%" height="100%" result="displacementMap"></feDisplacementMap>
</filter></defs><rect width="100%" height="100%" fill="hsl(212, 82%, 7%)"></rect><g fill="url(#ssspill-grad)" filter="url(#ssspot-filter)"><circle r="8.171118775502595" cx="68.66308789694388" cy="206.93897730258885" opacity="0.34948251769887"></circle><circle r="4.378217287538416" cx="32.9172742032377" cy="389.89767110201467" opacity="0.4243411659500663"></circle><circle r="6.168562092986705" cx="760.4374679815508" cy="656.9819661658245" opacity="0.4433863863128187"></circle><circle r="7.823609743698455" cx="199.5177086182531" cy="656.8709627758604" opacity="0.1459197212516839"></circle><circle r="5.13235447192453" cx="296.4413003357185" cy="663.052146637056" opacity="0.49655275803858323"></circle><circle r="10.57118456242321" cx="710.9121952508252" cy="199.7348911261937" opacity="0.7457231643809324"></circle><circle r="7.02863094918397" cx="447.2271072058077" cy="723.5919379253652" opacity="0.18299943642278954"></circle><circle r="10.847302493291274" cx="86.66261058979991" cy="580.5210114320553" opacity="0.8546900449583786"></circle><circle r="10.372312797046643" cx="88.74884080278875" cy="438.5230669473262" opacity="0.5333209650628867"></circle><circle r="10.217345342294239" cx="672.1026757975116" cy="712.0051631829976" opacity="0.9558128984266516"></circle><circle r="5.7904336456831125" cx="362.47138377489665" cy="522.5678175162284" opacity="0.6478365824229089"></circle><circle r="6.620019847135973" cx="266.01568438301206" cy="209.5500430224736" opacity="0.14136491181361477"></circle><circle r="4.833712541487736" cx="263.0379284912236" cy="357.88918282023013" opacity="0.6158858854552776"></circle><circle r="9.409781231596785" cx="143.73257539755602" cy="208.0574685219532" opacity="0.8174735270045769"></circle><circle r="6.8948307767769865" cx="778.4749965330667" cy="744.3688891746041" opacity="0.4548543372614514"></circle><circle r="6.233952051195882" cx="381.97530028540245" cy="563.5067755199162" opacity="0.4540007601993349"></circle><circle r="5.670271061036382" cx="255.5610636779772" cy="584.6575766577607" opacity="0.3666102519073625"></circle><circle r="8.519461673490822" cx="652.7408200982123" cy="578.9708072607667" opacity="0.31426598502406033"></circle><circle r="10.07404378878613" cx="518.1542213309136" cy="778.2736057961409" opacity="0.4184769566625174"></circle><circle r="8.483658164850995" cx="246.6666095296799" cy="87.28662094307198" opacity="0.4580927535583049"></circle><circle r="10.540275010975348" cx="618.4408303385384" cy="28.706053933180566" opacity="0.5760099799417479"></circle><circle r="6.365276461839782" cx="276.2415177508767" cy="472.8928337863275" opacity="0.906562350455053"></circle><circle r="7.860583318843354" cx="197.0807298642553" cy="145.06060222715283" opacity="0.21866324951949118"></circle><circle r="8.778156837202486" cx="100.76816752464815" cy="163.39658661123917" opacity="0.42457930615678485"></circle><circle r="9.58338832107369" cx="164.10757343294512" cy="677.7626124287231" opacity="0.7080130120289789"></circle><circle r="7.790343974465928" cx="136.81778530712478" cy="27.60904095038307" opacity="0.7090875488937692"></circle><circle r="8.735961143227025" cx="553.0967601807527" cy="709.7909521552627" opacity="0.5170489241705607"></circle><circle r="9.293098604738601" cx="412.08142558574485" cy="427.26959965482723" opacity="0.7135271492335803"></circle><circle r="8.122700498397489" cx="673.6932622909153" cy="107.98420692306927" opacity="0.2607722233387474"></circle><circle r="7.202463333514295" cx="589.3929153837889" cy="494.17956752003676" opacity="0.2868001826461826"></circle><circle r="6.257040889177828" cx="76.02688430201572" cy="772.7134325194228" opacity="0.7228722846377478"></circle><circle r="10.389899292288337" cx="668.1507485629237" cy="443.60799831035587" opacity="0.21237370340599865"></circle><circle r="7.745366850349479" cx="726.7068639602826" cy="43.53787917395449" opacity="0.5408943933655835"></circle><circle r="5.541811911971779" cx="122.3856517272236" cy="601.65745375827" opacity="0.3359581271996195"></circle><circle r="6.806370478338284" cx="519.0081096361579" cy="303.2063781155269" opacity="0.32150899871852257"></circle><circle r="12.119146313123347" cx="510.76079173239367" cy="491.58573718607573" opacity="0.6015972181333464"></circle><circle r="5.867793886185714" cx="404.6782364744734" cy="593.8057015705535" opacity="0.2998083104910324"></circle><circle r="11.754020091584781" cx="83.99961866127477" cy="37.480401649954736" opacity="0.8808614489321676"></circle><circle r="11.37992624635654" cx="417.79062731982884" cy="26.30120132303582" opacity="0.7478003813242671"></circle><circle r="6.276286023446056" cx="340.90928831573126" cy="470.74956762040046" opacity="0.941018848441672"></circle><circle r="8.51589650805165" cx="22.419845829537195" cy="591.6239421270825" opacity="0.7607584832905514"></circle><circle r="11.808896908358065" cx="733.0326690196027" cy="431.323031804857" opacity="0.12409416745135728"></circle><circle r="6.9372479684193555" cx="309.27040992061427" cy="505.5197655234495" opacity="0.8259245812965352"></circle><circle r="9.536130438744355" cx="436.54789549178804" cy="644.2639279670683" opacity="0.5383383131079212"></circle><circle r="4.5101720561883445" cx="298.84476707062674" cy="574.772726251822" opacity="0.18080772379116872"></circle><circle r="3.9173689901249795" cx="11.76941446928072" cy="348.2473627903578" opacity="0.9698233704368214"></circle><circle r="4.610973483118228" cx="95.5400741878733" cy="305.95673748007084" opacity="0.24566085843647975"></circle><circle r="9.694659349740991" cx="406.60990092503977" cy="271.1970327421637" opacity="0.895721934607243"></circle><circle r="4.947022324431394" cx="223.18465608451717" cy="169.53897354909324" opacity="0.5175122717446528"></circle><circle r="9.462238740946905" cx="262.2262996161421" cy="160.72070703324195" opacity="0.10209876885693263"></circle><circle r="11.90334577101495" cx="200.2237442590123" cy="33.89650885959012" opacity="0.3034811468886451"></circle><circle r="6.058064734369945" cx="268.4149813000962" cy="637.9464664764911" opacity="0.8637202110735113"></circle><circle r="7.123921827082016" cx="638.7287730074066" cy="97.65297261480185" opacity="0.16381035132643587"></circle><circle r="6.962798670729528" cx="556.7502274394659" cy="339.68171183883743" opacity="0.9311375136552443"></circle><circle r="6.207229906758674" cx="668.3102091555205" cy="229.11986446623575" opacity="0.7516023569966495"></circle><circle r="4.96312815968854" cx="465.73080928633016" cy="541.8854392491046" opacity="0.4469166609678825"></circle><circle r="7.8180322192392175" cx="617.1236425328536" cy="461.16182836442346" opacity="0.275787399985977"></circle><circle r="12.205559773472661" cx="392.48822066796316" cy="483.8279015519151" opacity="0.3557598628224825"></circle><circle r="7.605829507188239" cx="363.2861527549469" cy="257.8389277996454" opacity="0.2722221078427486"></circle><circle r="5.980778885497369" cx="135.32827583660347" cy="548.7102587569801" opacity="0.23804184092710765"></circle><circle r="8.955635818771434" cx="362.0863122961514" cy="170.61137603487336" opacity="0.7820082326299231"></circle><circle r="3.0318743923579228" cx="788.4597306730552" cy="663.3055945143533" opacity="0.7631713858831644"></circle><circle r="8.00178776043562" cx="70.68551985601601" cy="474.4068375643144" opacity="0.6661796281717406"></circle><circle r="6.347097478976757" cx="500.1079475419088" cy="338.71491553118085" opacity="0.14941884812415007"></circle><circle r="6.14263111583992" cx="399.7289254068365" cy="216.0723381737367" opacity="0.18442952402827473"></circle><circle r="3.272243120295903" cx="16.82989692421263" cy="486.8923851990236" opacity="0.9361965426762727"></circle><circle r="8.211211022885855" cx="619.0429679751941" cy="624.5097356391703" opacity="0.891399086310876"></circle><circle r="5.346777847019084" cx="433.2045588885897" cy="118.95501545671816" opacity="0.9149391588187449"></circle><circle r="9.304960323432612" cx="161.8134414862144" cy="450.6513503641195" opacity="0.45941244949518356"></circle><circle r="7.154210389906627" cx="51.48909733122008" cy="547.4586447539328" opacity="0.8508947300249712"></circle><circle r="5.4167602892289635" cx="500.22428585982135" cy="560.1809597847526" opacity="0.5763040647155614"></circle><circle r="3.8891814039382866" cx="788.9144743555902" cy="703.829276594264" opacity="0.9355421334637964"></circle><circle r="7.496875815843772" cx="50.538395349392275" cy="420.88256871726446" opacity="0.6913016184378442"></circle><circle r="8.508492222400509" cx="557.4419635067559" cy="463.34424039828656" opacity="0.7074670098737579"></circle><circle r="11.219643900469023" cx="20.24617566226971" cy="192.45592590853005" opacity="0.891703320265531"></circle><circle r="7.67699006791185" cx="17.378621908927713" cy="524.8424267471396" opacity="0.7123418140874437"></circle><circle r="9.683618329049231" cx="127.35285129688447" cy="647.3225665350243" opacity="0.14309216549664389"></circle><circle r="6.727977553060768" cx="505.77135933747655" cy="381.12135037404107" opacity="0.6976881138086095"></circle><circle r="7.704209620459681" cx="523.7330960939598" cy="157.46882149909933" opacity="0.8536195710347148"></circle><circle r="6.438088536255602" cx="741.0225122732875" cy="613.7369464579098" opacity="0.5670100071834432"></circle><circle r="6.6834179923322115" cx="274.4958359396407" cy="394.10158156692546" opacity="0.20647667912205395"></circle><circle r="7.725426814678821" cx="298.4502129617696" cy="608.0220024533178" opacity="0.8403214612449256"></circle><circle r="3.7797317317481096" cx="10.50732720859226" cy="463.76887020283135" opacity="0.696726710185669"></circle><circle r="5.177260327028692" cx="102.00619544725166" cy="529.1675280626948" opacity="0.7396782922886919"></circle><circle r="6.824871460157658" cx="119.74913745119022" cy="335.9189974631547" opacity="0.14739472535850917"></circle><circle r="8.475111656358816" cx="772.4805893331086" cy="198.2482294997591" opacity="0.5450320256420979"></circle><circle r="5.109127158068718" cx="44.12704229274589" cy="363.82541367509293" opacity="0.27030436975055727"></circle><circle r="10.467922024164682" cx="77.47486288494771" cy="105.19306384487933" opacity="0.2620240552640524"></circle><circle r="10.48440184916166" cx="72.97236704891901" cy="724.8382558131461" opacity="0.28937051240389766"></circle><circle r="4.828578468353799" cx="129.03611253037343" cy="267.5839571730794" opacity="0.7366781522213829"></circle><circle r="12.718900687278559" cx="276.5844552603425" cy="29.390735634247825" opacity="0.8258363111909064"></circle><circle r="4.846677654569275" cx="356.28085981968263" cy="785.786035828812" opacity="0.16630763466354315"></circle><circle r="10.26776084595195" cx="400.90183055242255" cy="360.58042284427705" opacity="0.1455208982558367"></circle><circle r="8.575056425875898" cx="167.09220968049965" cy="172.13500515434635" opacity="0.7079076683728719"></circle><circle r="7.235654969572346" cx="545.9903464795369" cy="263.2557826778261" opacity="0.7576055406396799"></circle><circle r="7.924353519490006" cx="255.32248613562717" cy="319.8233790188408" opacity="0.32936291356686537"></circle><circle r="10.213961598448693" cx="183.0537462087137" cy="98.47034278121355" opacity="0.7855060879280035"></circle><circle r="9.510491570167419" cx="709.0881883288782" cy="571.9321062692908" opacity="0.23008867883078857"></circle><circle r="8.658985322931573" cx="77.47230628748642" cy="346.13935767886306" opacity="0.72103177823952"></circle><circle r="10.508005445888541" cx="620.8607539437547" cy="395.5859127256202" opacity="0.8758429768675491"></circle><circle r="9.836109543710709" cx="593.7576952819345" cy="679.037912944147" opacity="0.8804469438884008"></circle><circle r="6.626680770471019" cx="338.6776799991241" cy="220.35341017425824" opacity="0.885641195827096"></circle><circle r="13.246820501043413" cx="206.1617971318315" cy="235.95641864881128" opacity="0.5919260684012625"></circle><circle r="9.240988441123974" cx="496.723259309515" cy="668.4447452630942" opacity="0.8458700794887642"></circle><circle r="5.619940897695807" cx="600.1913664086982" cy="262.0853864893738" opacity="0.11349442276656149"></circle><circle r="5.848467565364597" cx="97.78409437169675" cy="237.3497628687639" opacity="0.7273837188190564"></circle><circle r="9.032893017532226" cx="297.69015398456065" cy="307.8704718998822" opacity="0.8080625824074918"></circle><circle r="11.962227977150318" cx="563.6948570540096" cy="385.2996351571337" opacity="0.4652658264215501"></circle><circle r="8.081689949527544" cx="338.1974432567938" cy="725.4438280526005" opacity="0.30344612155911327"></circle><circle r="8.138144105098476" cx="73.19809770632314" cy="387.5261217674696" opacity="0.14591694589001664"></circle><circle r="4.402594652118108" cx="69.41900818820955" cy="510.34876565465487" opacity="0.44833146222596243"></circle><circle r="7.735463065566442" cx="728.1516292716051" cy="727.1308375859002" opacity="0.5677617863955362"></circle><circle r="7.18752140317461" cx="365.0519979541552" cy="317.26925162209676" opacity="0.46062397121421617"></circle><circle r="13.630241088083165" cx="28.130017055162746" cy="250.2147218720507" opacity="0.6761277761139007"></circle><circle r="6.908124784289241" cx="623.5264812188765" cy="515.7033462465113" opacity="0.9554334799336359"></circle><circle r="7.438795391752599" cx="680.932174902997" cy="63.79861049501439" opacity="0.2928714739908218"></circle><circle r="6.942338166020583" cx="55.097677542569656" cy="155.93021237424142" opacity="0.4274552953690518"></circle><circle r="9.19504991060176" cx="763.0752185456471" cy="18.81147308899927" opacity="0.8695590626219605"></circle><circle r="6.091277705830684" cx="473.49815430132384" cy="144.49630474475566" opacity="0.8697509798367827"></circle><circle r="6.842153554517994" cx="567.6801458117078" cy="785.1022084848679" opacity="0.8971351262274478"></circle><circle r="7.671841369865432" cx="689.2237913236715" cy="528.412935806461" opacity="0.30059966205049465"></circle><circle r="5.982023949413846" cx="699.3654874443058" cy="19.023848681348607" opacity="0.41113691718873413"></circle><circle r="6.460052574742971" cx="733.2155538253133" cy="93.91316496109951" opacity="0.8758592323440431"></circle><circle r="6.281001000645568" cx="21.84015580100975" cy="125.66333038522808" opacity="0.6943052576525355"></circle><circle r="7.327352494731392" cx="730.8674180685028" cy="364.5714854134416" opacity="0.6486530889407445"></circle><circle r="8.60961113186163" cx="594.4427758569167" cy="428.5441400197159" opacity="0.8372835572097486"></circle><circle r="5.180904075855674" cx="156.6237719979247" cy="616.4278823913701" opacity="0.4471139198133409"></circle><circle r="6.396287035792499" cx="473.27599177429215" cy="194.24115043482416" opacity="0.8479622565413304"></circle><circle r="10.818384311923458" cx="458.23719871303007" cy="401.4427604353847" opacity="0.7441518438700981"></circle><circle r="4.142231860296379" cx="10.447468358866553" cy="398.30462541005943" opacity="0.23508580372362373"></circle><circle r="11.94517756369655" cx="543.1401552287701" cy="93.77373138266735" opacity="0.2528172670529911"></circle><circle r="8.462515985207556" cx="246.04509655428086" cy="522.2171292438666" opacity="0.30991255948461277"></circle><circle r="11.004742743431981" cx="369.826602303099" cy="126.4892916949973" opacity="0.2898184378237212"></circle><circle r="4.859362324694082" cx="666.619248693691" cy="267.82982089859934" opacity="0.6059239676246577"></circle><circle r="8.5819797578772" cx="500.2523457960452" cy="724.9460927844059" opacity="0.9708796942506017"></circle><circle r="5.402909748249332" cx="245.63156678939615" cy="416.6246612568141" opacity="0.6863379178128827"></circle><circle r="11.579945639813864" cx="444.239565765648" cy="593.099727018077" opacity="0.5638923914283704"></circle><circle r="9.715014799260995" cx="524.9254638861571" cy="211.14531737112057" opacity="0.6014826768903127"></circle><circle r="8.74883880014005" cx="317.19092421157535" cy="370.39543756319983" opacity="0.10223863791958789"></circle><circle r="10.453137529596015" cx="253.11907130995837" cy="266.7663257659783" opacity="0.7007606677843256"></circle><circle r="5.715545017697867" cx="615.8494711918911" cy="727.1631607975924" opacity="0.46108507416568867"></circle><circle r="9.6792204867761" cx="661.3312859235059" cy="380.4263261024703" opacity="0.4833606846426154"></circle><circle r="5.506458944869761" cx="298.3077870439414" cy="783.9163065121649" opacity="0.9185214971683925"></circle><circle r="7.214301643700869" cx="727.1098428487287" cy="308.7939860097323" opacity="0.5500969049401394"></circle><circle r="5.04775040694777" cx="775.4014250624542" cy="585.1726451836873" opacity="0.4688573855007646"></circle><circle r="8.733517996790006" cx="134.7220711414477" cy="136.18958562159727" opacity="0.5677513595970713"></circle><circle r="4.671706291327303" cx="400.6762073107608" cy="171.7370268985092" opacity="0.4294847324052288"></circle><circle r="7.545984135990184" cx="697.1309523249784" cy="401.6958870281541" opacity="0.4927748341380763"></circle><circle r="9.623118769183709" cx="588.9938685359369" cy="143.45208825948214" opacity="0.8877959266813632"></circle><circle r="7.323270431943418" cx="485.53708363702253" cy="442.84532538005317" opacity="0.6728206703871843"></circle><circle r="4.7927345456513475" cx="706.3391546086285" cy="625.6401603493417" opacity="0.5058679070660222"></circle><circle r="8.09596876744732" cx="445.00652043851204" cy="462.59670150918816" opacity="0.10871750595632725"></circle><circle r="5.470972677866549" cx="326.289912158775" cy="636.6897451742418" opacity="0.3167671070772379"></circle><circle r="3.835739566178809" cx="246.85755395993488" cy="759.5789760178654" opacity="0.21117758161830222"></circle><circle r="8.468492728358399" cx="776.3811048918566" cy="95.47539598613331" opacity="0.8665165117269077"></circle><circle r="8.276227062682258" cx="348.4357611369407" cy="25.09734042241271" opacity="0.3806889948026936"></circle><circle r="6.05470948993278" cx="213.80503640099477" cy="610.1466377669144" opacity="0.5895534383186488"></circle><circle r="7.591777949512986" cx="414.6916177239163" cy="82.67993599134664" opacity="0.20462021561027485"></circle><circle r="11.465598939179678" cx="763.0556641221382" cy="542.6594418183532" opacity="0.8174102884701953"></circle><circle r="13.164508258152718" cx="466.5580196162346" cy="773.1515924119949" opacity="0.7791253695369883"></circle><circle r="10.234020638904887" cx="118.53001640905173" cy="478.669981180514" opacity="0.33700352084820684"></circle><circle r="8.56320133453967" cx="271.86549174464886" cy="546.5955272463225" opacity="0.8964547739812311"></circle><circle r="6.036029374729653" cx="629.2273568075465" cy="284.3468021991543" opacity="0.8168561083879239"></circle><circle r="10.519065542518316" cx="304.04893127812403" cy="249.7786387180364" opacity="0.3782386604081214"></circle><circle r="8.788389953350343" cx="776.0266146926089" cy="344.74643329770487" opacity="0.25670278955208986"></circle><circle r="6.511886628569218" cx="192.14464139332753" cy="526.173813139375" opacity="0.30702462875684233"></circle><circle r="9.220270178397211" cx="399.1572029504015" cy="677.7093527140212" opacity="0.5178141467667393"></circle><circle r="8.849851713185856" cx="768.4096654368475" cy="243.07413965962047" opacity="0.8944628332316076"></circle><circle r="9.497033568419749" cx="447.01534737258487" cy="357.5107907548696" opacity="0.793915787963885"></circle><circle r="6.950562738220031" cx="756.2962522149397" cy="779.7815887524013" opacity="0.43718444179364346"></circle><circle r="7.390979757647264" cx="459.6785706301878" cy="499.46477697097146" opacity="0.28836341940717264"></circle><circle r="3.7968195134107505" cx="739.2543849339141" cy="674.1167182217656" opacity="0.11619226489421387"></circle><circle r="4.874889845833109" cx="409.3738069336932" cy="727.5558451821616" opacity="0.6532955003417928"></circle><circle r="15.655445266406538" cx="25.107289713510553" cy="684.6606727393319" opacity="0.4285016338339208"></circle><circle r="5.562771922380143" cx="163.24731736903468" cy="327.41068484252077" opacity="0.48616548578618624"></circle><circle r="3.11967831144623" cx="41.13989853420983" cy="483.09662345955445" opacity="0.677354995898939"></circle><circle r="7.09311068501678" cx="704.5544471442796" cy="124.15968993141256" opacity="0.957322270706393"></circle><circle r="5.867327409591484" cx="632.5101405049573" cy="684.2855261052576" opacity="0.33276074791348703"></circle><circle r="8.886012243566146" cx="566.4606831568549" cy="628.9329707247595" opacity="0.7621278378821624"></circle><circle r="7.3124976710847776" cx="315.0801620095677" cy="541.47200768466" opacity="0.27447930097725864"></circle><circle r="9.159212642236946" cx="187.94308095279607" cy="776.5767725899176" opacity="0.5407178483802474"></circle><circle r="5.950979977983824" cx="666.025424566365" cy="303.47423221444893" opacity="0.18214479283116036"></circle><circle r="7.736470910202815" cx="225.4689783375923" cy="732.5413600858064" opacity="0.4645506812847887"></circle><circle r="5.3920482595874235" cx="725.7206627056215" cy="156.72237345756295" opacity="0.2873325087934916"></circle><circle r="11.308657293289638" cx="27.825771542115653" cy="72.46662333432559" opacity="0.9329088589355671"></circle><circle r="8.65698256400417" cx="540.1519560680023" cy="664.5553687957289" opacity="0.3861617534356645"></circle><circle r="6.795188884111659" cx="242.34535797045476" cy="623.4076819925231" opacity="0.15817547481191147"></circle><circle r="10.473324134528003" cx="529.9858689549113" cy="426.5158196502324" opacity="0.46155973212301404"></circle><circle r="6.675052787973839" cx="32.50777429687361" cy="23.28803074455075" opacity="0.25479533903464313"></circle><circle r="10.431121532142834" cx="152.91552529746986" cy="375.1806588214974" opacity="0.47561801681976834"></circle><circle r="6.965614686973648" cx="757.5784569751403" cy="150.14923529642277" opacity="0.3974808341550564"></circle><circle r="5.844707351646343" cx="708.7896222586793" cy="681.4007427233141" opacity="0.43888502759682424"></circle><circle r="7.80129970518923" cx="168.32999858768005" cy="270.45608946727634" opacity="0.6883827332182955"></circle><circle r="12.066316739595921" cx="597.7513661094225" cy="83.26834717354798" opacity="0.6249935122320179"></circle><circle r="7.704886546770062" cx="578.4052334433255" cy="300.92478656638644" opacity="0.4654641479578796"></circle><circle r="6.809112982602037" cx="42.97542543232286" cy="779.4578346201178" opacity="0.3101860494816566"></circle><circle r="5.416152925468986" cx="676.7376810043397" cy="642.5708646617159" opacity="0.6234273348932198"></circle><circle r="5.534569779521659" cx="24.81819010336978" cy="440.26773329069783" opacity="0.2193961612063727"></circle><circle r="5.82711793361751" cx="461.49308728647287" cy="231.3515460382503" opacity="0.40760087333509387"></circle><circle r="10.675462033246347" cx="282.77164557897845" cy="703.9410681300824" opacity="0.22649228915582678"></circle><circle r="8.434551440664267" cx="780.8832843231704" cy="625.2090897453156" opacity="0.2285037094866898"></circle><circle r="5.700724044067928" cx="374.1723458044877" cy="74.99298424168319" opacity="0.2798304340909772"></circle><circle r="7.864278259101658" cx="127.58566215853142" cy="83.35756175319263" opacity="0.19693864215635581"></circle><circle r="8.576890328045181" cx="137.07683699499137" cy="713.3505169745401" opacity="0.20019421589546102"></circle><circle r="8.283657746974065" cx="371.7629853119614" cy="627.1274195922424" opacity="0.9838469385878043"></circle><circle r="4.444847790886703" cx="337.88527099349676" cy="593.4671086834484" opacity="0.1241575267281885"></circle><circle r="7.292689110422373" cx="639.4583314828224" cy="177.46735070179855" opacity="0.7407708633556066"></circle><circle r="10.438412666926336" cx="289.6506871248093" cy="122.12154389214005" opacity="0.971094358142265"></circle><circle r="4.607331128674719" cx="328.78409389153796" cy="189.3702577303338" opacity="0.17147538459219713"></circle><circle r="7.149761918574676" cx="162.23061839300905" cy="500.1070633881736" opacity="0.23949146769103666"></circle><circle r="5.724193613138847" cx="495.3213101327585" cy="238.500796492668" opacity="0.5505013291039715"></circle><circle r="12.441732080340962" cx="694.3779159322836" cy="765.0852260211509" opacity="0.6104940438159395"></circle><circle r="8.558410432683678" cx="488.61656905023136" cy="619.0318789394013" opacity="0.5627127703569643"></circle><circle r="8.08188278412535" cx="717.6559214324528" cy="245.72658239552902" opacity="0.6397910285947401"></circle><circle r="9.470991436116147" cx="207.48923234070514" cy="311.54838125241673" opacity="0.480050420002994"></circle><circle r="4.101516061375863" cx="786.5872515528174" cy="145.06992300145143" opacity="0.36067238305698934"></circle><circle r="12.504858551937664" cx="322.0534817711362" cy="80.72098112952757" opacity="0.5632640320852996"></circle><circle r="7.715024253078047" cx="345.5551949962242" cy="561.3575479282498" opacity="0.950312154668681"></circle><circle r="7.160475034948199" cx="410.6096830974715" cy="772.8441897142146" opacity="0.43772825894617684"></circle><circle r="9.257739162834708" cx="303.35123121124474" cy="432.60827713927904" opacity="0.5107891331411817"></circle><circle r="4.425285367582758" cx="468.97365915449063" cy="278.4930541483239" opacity="0.17681037174792896"></circle><circle r="6.276061790249757" cx="457.9352175651256" cy="688.9334094569582" opacity="0.6404847501565026"></circle><circle r="6.568972374931169" cx="280.6722477639418" cy="759.9857705714986" opacity="0.6849697593031541"></circle><circle r="13.095755072737965" cx="594.2485936702699" cy="566.4219679614115" opacity="0.6507775624035547"></circle><circle r="11.714827873469662" cx="90.23971852732662" cy="675.6159416039541" opacity="0.47468137561330415"></circle><circle r="10.810810204735986" cx="360.40700883887547" cy="421.92197494224547" opacity="0.5878969767479615"></circle><circle r="8.63939384397715" cx="314.2066840872054" cy="156.99854453530176" opacity="0.8037120275501896"></circle><circle r="8.831970165765659" cx="661.2440520871917" cy="20.9062381890432" opacity="0.9449147641791975"></circle><circle r="7.322365544894915" cx="333.1181360915853" cy="297.7710129934998" opacity="0.833514040765849"></circle><circle r="10.922469081642882" cx="648.2167329884792" cy="774.9031522685983" opacity="0.7672832010782201"></circle><circle r="9.523263945635751" cx="463.28061161073856" cy="75.35900925796689" opacity="0.8271993342759539"></circle><circle r="12.229778309801004" cx="57.38748907494734" cy="630.1748258976204" opacity="0.5239321500882588"></circle><circle r="6.048924800337893" cx="358.4856517430095" cy="753.3062020969903" opacity="0.6945302587405691"></circle><circle r="10.49230923265446" cx="212.7238369707093" cy="565.7651700516966" opacity="0.7261147178021438"></circle><circle r="7.474137930276296" cx="701.4298458493378" cy="280.2221659318923" opacity="0.40220997394366087"></circle><circle r="6.773160119762656" cx="777.0370856172273" cy="411.6239427705496" opacity="0.22158093317744354"></circle><circle r="5.02866413182753" cx="71.03642088436422" cy="278.5254711756115" opacity="0.2041146782420017"></circle><circle r="9.829379486851632" cx="234.37556413282425" cy="678.9943119611008" opacity="0.3732342627393139"></circle><circle r="5.934487533802914" cx="25.829207054096273" cy="300.290360109805" opacity="0.9304781572697335"></circle><circle r="3.9217808403116994" cx="435.5034348485402" cy="244.64843701678765" opacity="0.2674558827697058"></circle><circle r="9.052836259833473" cx="553.4615143517543" cy="523.5522513100628" opacity="0.30438738826982903"></circle><circle r="8.111615440750132" cx="210.49743750407396" cy="370.81971884207275" opacity="0.8643668504255467"></circle><circle r="7.888529104871925" cx="17.36409189355509" cy="757.0645972504051" opacity="0.7625781520206353"></circle><circle r="8.27069590291741" cx="226.31640941517634" cy="486.3156346908223" opacity="0.4899164390682783"></circle><circle r="6.303549744485384" cx="456.12908010377254" cy="309.4929411648556" opacity="0.6518900420524653"></circle><circle r="6.837884083595999" cx="186.40202010798947" cy="413.33196470915334" opacity="0.14264050371683828"></circle><circle r="6.4316710816528175" cx="346.6472955659327" cy="681.5378604715346" opacity="0.27030773931033747"></circle><circle r="6.026221653051849" cx="781.6222277595263" cy="50.31621427561417" opacity="0.4227252437522324"></circle><circle r="8.876075834471752" cx="652.3465548711068" cy="334.40116725352476" opacity="0.5971714231038342"></circle><circle r="6.455510888056827" cx="110.41608349104959" cy="782.5528319848729" opacity="0.6974750847063032"></circle><circle r="10.373278736544108" cx="612.2386798252809" cy="341.8960290336364" opacity="0.9558971245133183"></circle><circle r="6.622733259401269" cx="419.4006097335153" cy="532.4552548979855" opacity="0.7025345543317749"></circle><circle r="8.709936947383731" cx="189.36098463784583" cy="718.4452616348387" opacity="0.6356287762096875"></circle><circle r="8.901227926082449" cx="168.34810533094233" cy="574.2042857020081" opacity="0.9536334163155488"></circle><circle r="8.364220997210547" cx="672.5700073321453" cy="155.4668924609893" opacity="0.5651372241138906"></circle><circle r="8.373116227998265" cx="572.8653769391772" cy="190.79436280294487" opacity="0.10553977377824988"></circle><circle r="7.033489630749336" cx="182.57540084152572" cy="624.2126691048832" opacity="0.4968025970295816"></circle><circle r="9.916233070055048" cx="774.653041455384" cy="486.0343567320933" opacity="0.12719095623346943"></circle><circle r="12.989561405976362" cx="556.9799767845344" cy="30.86135096646586" opacity="0.3523843236884914"></circle><circle r="3.7975847539660568" cx="40.099289917037034" cy="333.92690290518993" opacity="0.6124569872633224"></circle><circle r="9.405665375610994" cx="414.2096589689845" cy="314.80035067353134" opacity="0.8227266360142647"></circle><circle r="6.38043101990528" cx="221.59475547006906" cy="448.80443313899366" opacity="0.6619537305628213"></circle><circle r="4.345457479909338" cx="654.5605304104479" cy="663.1554240646682" opacity="0.2613007881391062"></circle><circle r="9.224888293099204" cx="134.4390120159101" cy="758.6784436477916" opacity="0.6150967664258161"></circle><circle r="14.414412521931261" cx="490.72312445393584" cy="31.040269114782582" opacity="0.8851772970080943"></circle><circle r="8.065693950341329" cx="660.3089315178644" cy="494.3489212952398" opacity="0.44293584421314147"></circle><circle r="4.21617667635192" cx="507.2209929919223" cy="268.0718313468851" opacity="0.48835646231132257"></circle><circle r="5.497639178059109" cx="575.3897473066284" cy="232.76398449578423" opacity="0.5199453565840915"></circle><circle r="9.482810433834741" cx="436.36381092748707" cy="166.0194459562699" opacity="0.5283013293883816"></circle><circle r="6.790822154243118" cx="498.8919855089429" cy="107.081527290766" opacity="0.3182009605088645"></circle><circle r="8.652552445161527" cx="538.0033155747492" cy="587.1348977379657" opacity="0.58173377599615"></circle><circle r="12.470604556948697" cx="720.3609617805079" cy="485.6572052290265" opacity="0.5112029312580886"></circle><circle r="6.283005399841313" cx="117.66020814176196" cy="402.926459913934" opacity="0.5640820171914774"></circle><circle r="5.392939453703259" cx="602.676751727529" cy="770.7716384334403" opacity="0.3031599311657408"></circle><circle r="9.367760262724667" cx="624.3890262494947" cy="221.24882398771578" opacity="0.5702871407822213"></circle><circle r="7.568690679423761" cx="772.621459378573" cy="289.3317400672688" opacity="0.9371106059975931"></circle><circle r="7.60512599839371" cx="553.971350031657" cy="748.6150086137113" opacity="0.17098933308481146"></circle><circle r="5.54306498548773" cx="363.49382300545426" cy="372.14562765140687" opacity="0.6427348644913662"></circle><circle r="4.97472172962127" cx="691.0393733973791" cy="340.7886707326167" opacity="0.7720926262421255"></circle><circle r="6.127095236973794" cx="762.1662586137903" cy="701.0490418921539" opacity="0.8273208553310848"></circle></g></svg>